<mxfile host="app.diagrams.net" agent="Mozilla/5.0 (Windows NT 10.0; Win64; x64) AppleWebKit/537.36 (KHTML, like Gecko) Chrome/139.0.0.0 Safari/537.36 Edg/139.0.0.0" version="28.1.0">
  <diagram name="第 1 页" id="oS1hnIb2pKha_RooXdid">
    <mxGraphModel dx="1213" dy="673" grid="1" gridSize="10" guides="1" tooltips="1" connect="1" arrows="1" fold="1" page="1" pageScale="1" pageWidth="827" pageHeight="1169" math="0" shadow="0">
      <root>
        <mxCell id="0" />
        <mxCell id="1" parent="0" />
        <mxCell id="z-AKncyKRG6QcuSsVURf-11" style="edgeStyle=orthogonalEdgeStyle;rounded=0;orthogonalLoop=1;jettySize=auto;html=1;entryX=0;entryY=0.5;entryDx=0;entryDy=0;" parent="1" source="z-AKncyKRG6QcuSsVURf-2" target="z-AKncyKRG6QcuSsVURf-9" edge="1">
          <mxGeometry relative="1" as="geometry" />
        </mxCell>
        <mxCell id="z-AKncyKRG6QcuSsVURf-17" style="edgeStyle=orthogonalEdgeStyle;rounded=0;orthogonalLoop=1;jettySize=auto;html=1;entryX=0.041;entryY=0.004;entryDx=0;entryDy=0;entryPerimeter=0;" parent="1" source="z-AKncyKRG6QcuSsVURf-2" target="z-AKncyKRG6QcuSsVURf-4" edge="1">
          <mxGeometry relative="1" as="geometry">
            <Array as="points">
              <mxPoint x="130" y="330" />
              <mxPoint x="130" y="400" />
            </Array>
          </mxGeometry>
        </mxCell>
        <mxCell id="z-AKncyKRG6QcuSsVURf-2" value="&lt;font style=&quot;font-size: 18px;&quot;&gt;数据集&lt;/font&gt;" style="rounded=1;whiteSpace=wrap;html=1;" parent="1" vertex="1">
          <mxGeometry y="305" width="100" height="50" as="geometry" />
        </mxCell>
        <mxCell id="z-AKncyKRG6QcuSsVURf-24" style="rounded=0;orthogonalLoop=1;jettySize=auto;html=1;exitX=1;exitY=1;exitDx=0;exitDy=0;entryX=0;entryY=0.5;entryDx=0;entryDy=0;" parent="1" target="z-AKncyKRG6QcuSsVURf-5" edge="1">
          <mxGeometry relative="1" as="geometry">
            <mxPoint x="300" y="400" as="targetPoint" />
            <mxPoint x="270" y="400" as="sourcePoint" />
            <Array as="points">
              <mxPoint x="280" y="400" />
            </Array>
          </mxGeometry>
        </mxCell>
        <mxCell id="z-AKncyKRG6QcuSsVURf-3" value="&lt;font style=&quot;font-size: 18px;&quot;&gt;数值特征&lt;/font&gt;" style="rounded=1;whiteSpace=wrap;html=1;" parent="1" vertex="1">
          <mxGeometry x="180" y="350" width="100" height="50" as="geometry" />
        </mxCell>
        <mxCell id="z-AKncyKRG6QcuSsVURf-4" value="&lt;font style=&quot;font-size: 18px;&quot;&gt;类别特征&lt;/font&gt;" style="rounded=1;whiteSpace=wrap;html=1;" parent="1" vertex="1">
          <mxGeometry x="180" y="400" width="100" height="50" as="geometry" />
        </mxCell>
        <mxCell id="z-AKncyKRG6QcuSsVURf-27" style="rounded=0;orthogonalLoop=1;jettySize=auto;html=1;entryX=0;entryY=0.5;entryDx=0;entryDy=0;" parent="1" source="z-AKncyKRG6QcuSsVURf-5" target="z-AKncyKRG6QcuSsVURf-6" edge="1">
          <mxGeometry relative="1" as="geometry" />
        </mxCell>
        <mxCell id="z-AKncyKRG6QcuSsVURf-5" value="&lt;font style=&quot;font-size: 18px;&quot;&gt;操作符&lt;/font&gt;" style="rounded=1;whiteSpace=wrap;html=1;" parent="1" vertex="1">
          <mxGeometry x="324.24" y="375" width="100" height="50" as="geometry" />
        </mxCell>
        <mxCell id="o0zz2tRTPhdL-Uol58vQ-1" style="edgeStyle=orthogonalEdgeStyle;rounded=0;orthogonalLoop=1;jettySize=auto;html=1;entryX=0;entryY=0.75;entryDx=0;entryDy=0;exitX=0.5;exitY=0;exitDx=0;exitDy=0;" edge="1" parent="1" source="z-AKncyKRG6QcuSsVURf-6" target="z-AKncyKRG6QcuSsVURf-7">
          <mxGeometry relative="1" as="geometry" />
        </mxCell>
        <mxCell id="z-AKncyKRG6QcuSsVURf-6" value="&lt;font style=&quot;font-size: 18px;&quot;&gt;候选特征&lt;/font&gt;" style="rounded=1;whiteSpace=wrap;html=1;" parent="1" vertex="1">
          <mxGeometry x="470" y="375" width="100" height="50" as="geometry" />
        </mxCell>
        <mxCell id="z-AKncyKRG6QcuSsVURf-34" style="edgeStyle=orthogonalEdgeStyle;rounded=0;orthogonalLoop=1;jettySize=auto;html=1;entryX=0.5;entryY=0;entryDx=0;entryDy=0;dashed=1;dashPattern=8 8;" parent="1" source="z-AKncyKRG6QcuSsVURf-7" target="z-AKncyKRG6QcuSsVURf-2" edge="1">
          <mxGeometry relative="1" as="geometry">
            <Array as="points">
              <mxPoint x="669" y="210" />
              <mxPoint x="50" y="210" />
            </Array>
          </mxGeometry>
        </mxCell>
        <mxCell id="z-AKncyKRG6QcuSsVURf-35" value="&lt;font style=&quot;font-size: 18px;&quot;&gt;包含高排名特征&lt;/font&gt;" style="edgeLabel;html=1;align=center;verticalAlign=middle;resizable=0;points=[];" parent="z-AKncyKRG6QcuSsVURf-34" vertex="1" connectable="0">
          <mxGeometry x="-0.0267" y="-2" relative="1" as="geometry">
            <mxPoint as="offset" />
          </mxGeometry>
        </mxCell>
        <mxCell id="z-AKncyKRG6QcuSsVURf-7" value="&lt;font style=&quot;font-size: 18px;&quot;&gt;评估&lt;/font&gt;&lt;div&gt;&lt;font style=&quot;font-size: 14px;&quot;&gt;第一阶段：连续剪枝&lt;/font&gt;&lt;/div&gt;&lt;div&gt;&lt;font style=&quot;font-size: 14px;&quot;&gt;第二阶段：特征归因&lt;/font&gt;&lt;/div&gt;" style="rounded=1;whiteSpace=wrap;html=1;" parent="1" vertex="1">
          <mxGeometry x="590" y="270" width="160" height="80" as="geometry" />
        </mxCell>
        <mxCell id="z-AKncyKRG6QcuSsVURf-14" style="rounded=0;orthogonalLoop=1;jettySize=auto;html=1;entryX=0;entryY=0.5;entryDx=0;entryDy=0;" parent="1" source="z-AKncyKRG6QcuSsVURf-9" target="z-AKncyKRG6QcuSsVURf-10" edge="1">
          <mxGeometry relative="1" as="geometry" />
        </mxCell>
        <mxCell id="z-AKncyKRG6QcuSsVURf-9" value="&lt;font style=&quot;font-size: 18px;&quot;&gt;模型&lt;/font&gt;" style="rounded=1;whiteSpace=wrap;html=1;" parent="1" vertex="1">
          <mxGeometry x="160" y="230" width="100" height="50" as="geometry" />
        </mxCell>
        <mxCell id="z-AKncyKRG6QcuSsVURf-10" value="&lt;font style=&quot;font-size: 18px;&quot;&gt;预测结果&lt;/font&gt;" style="rounded=1;whiteSpace=wrap;html=1;" parent="1" vertex="1">
          <mxGeometry x="324.25" y="230" width="100" height="50" as="geometry" />
        </mxCell>
        <mxCell id="z-AKncyKRG6QcuSsVURf-31" style="rounded=0;orthogonalLoop=1;jettySize=auto;html=1;entryX=0.003;entryY=0.294;entryDx=0;entryDy=0;entryPerimeter=0;edgeStyle=orthogonalEdgeStyle;" parent="1" source="z-AKncyKRG6QcuSsVURf-10" target="z-AKncyKRG6QcuSsVURf-7" edge="1">
          <mxGeometry relative="1" as="geometry">
            <mxPoint x="612" y="285" as="targetPoint" />
          </mxGeometry>
        </mxCell>
      </root>
    </mxGraphModel>
  </diagram>
</mxfile>
